<svg xmlns="http://www.w3.org/2000/svg" width="25" height="24" viewBox="0 0 25 24" fill="none">
<path d="M12.5 6C13.0523 6 13.5 5.55228 13.5 5C13.5 4.44772 13.0523 4 12.5 4C11.9477 4 11.5 4.44772 11.5 5C11.5 5.55228 11.9477 6 12.5 6Z" stroke="#175CD3" stroke-width="2" stroke-linecap="round" stroke-linejoin="round"/>
<path d="M12.5 13C13.0523 13 13.5 12.5523 13.5 12C13.5 11.4477 13.0523 11 12.5 11C11.9477 11 11.5 11.4477 11.5 12C11.5 12.5523 11.9477 13 12.5 13Z" stroke="#175CD3" stroke-width="2" stroke-linecap="round" stroke-linejoin="round"/>
<path d="M12.5 20C13.0523 20 13.5 19.5523 13.5 19C13.5 18.4477 13.0523 18 12.5 18C11.9477 18 11.5 18.4477 11.5 19C11.5 19.5523 11.9477 20 12.5 20Z" stroke="#175CD3" stroke-width="2" stroke-linecap="round" stroke-linejoin="round"/>
<path d="M19.5 6C20.0523 6 20.5 5.55228 20.5 5C20.5 4.44772 20.0523 4 19.5 4C18.9477 4 18.5 4.44772 18.5 5C18.5 5.55228 18.9477 6 19.5 6Z" stroke="#175CD3" stroke-width="2" stroke-linecap="round" stroke-linejoin="round"/>
<path d="M19.5 13C20.0523 13 20.5 12.5523 20.5 12C20.5 11.4477 20.0523 11 19.5 11C18.9477 11 18.5 11.4477 18.5 12C18.5 12.5523 18.9477 13 19.5 13Z" stroke="#175CD3" stroke-width="2" stroke-linecap="round" stroke-linejoin="round"/>
<path d="M19.5 20C20.0523 20 20.5 19.5523 20.5 19C20.5 18.4477 20.0523 18 19.5 18C18.9477 18 18.5 18.4477 18.5 19C18.5 19.5523 18.9477 20 19.5 20Z" stroke="#175CD3" stroke-width="2" stroke-linecap="round" stroke-linejoin="round"/>
<path d="M5.5 6C6.05228 6 6.5 5.55228 6.5 5C6.5 4.44772 6.05228 4 5.5 4C4.94772 4 4.5 4.44772 4.5 5C4.5 5.55228 4.94772 6 5.5 6Z" stroke="#175CD3" stroke-width="2" stroke-linecap="round" stroke-linejoin="round"/>
<path d="M5.5 13C6.05228 13 6.5 12.5523 6.5 12C6.5 11.4477 6.05228 11 5.5 11C4.94772 11 4.5 11.4477 4.5 12C4.5 12.5523 4.94772 13 5.5 13Z" stroke="#175CD3" stroke-width="2" stroke-linecap="round" stroke-linejoin="round"/>
<path d="M5.5 20C6.05228 20 6.5 19.5523 6.5 19C6.5 18.4477 6.05228 18 5.5 18C4.94772 18 4.5 18.4477 4.5 19C4.5 19.5523 4.94772 20 5.5 20Z" stroke="#175CD3" stroke-width="2" stroke-linecap="round" stroke-linejoin="round"/>
</svg>