<svg width="41" height="41" viewBox="0 0 41 41" fill="none" xmlns="http://www.w3.org/2000/svg">
<g clip-path="url(#clip0_610_1325)">
<path d="M19.667 13.4445H13.8337C13.3916 13.4445 12.9677 13.6201 12.6551 13.9327C12.3426 14.2452 12.167 14.6692 12.167 15.1112V26.7779C12.167 27.2199 12.3426 27.6438 12.6551 27.9564C12.9677 28.2689 13.3916 28.4445 13.8337 28.4445H25.5003C25.9424 28.4445 26.3663 28.2689 26.6788 27.9564C26.9914 27.6438 27.167 27.2199 27.167 26.7779V20.9445M25.917 12.1945C26.2485 11.863 26.6982 11.6768 27.167 11.6768C27.6358 11.6768 28.0855 11.863 28.417 12.1945C28.7485 12.526 28.9348 12.9757 28.9348 13.4445C28.9348 13.9134 28.7485 14.363 28.417 14.6945L20.5003 22.6112L17.167 23.4445L18.0003 20.1112L25.917 12.1945Z" stroke="#1570EF" stroke-width="1.66667" stroke-linecap="round" stroke-linejoin="round"/>
</g>
<defs>
<clipPath id="clip0_610_1325">
<rect width="20" height="20" fill="white" transform="translate(10.5 10.1113)"/>
</clipPath>
</defs>
</svg>
