<svg width="78" height="79" viewBox="0 0 78 79" fill="none" xmlns="http://www.w3.org/2000/svg">
<rect y="0.572266" width="78" height="78" rx="39" fill="#D1E9FF"/>
<path d="M23.8333 59H54.1667C56.5599 59 58.5 57.0599 58.5 54.6667V24.3333C58.5 21.9401 56.5599 20 54.1667 20H23.8333C21.4401 20 19.5 21.9401 19.5 24.3333V54.6667C19.5 57.0599 21.4401 59 23.8333 59ZM23.8333 59L47.6667 35.1667L58.5 46M34.6667 31.9167C34.6667 33.7116 33.2116 35.1667 31.4167 35.1667C29.6217 35.1667 28.1667 33.7116 28.1667 31.9167C28.1667 30.1217 29.6217 28.6667 31.4167 28.6667C33.2116 28.6667 34.6667 30.1217 34.6667 31.9167Z" stroke="#1570EF" stroke-width="2.837" stroke-linecap="round" stroke-linejoin="round"/>
</svg>
