<svg xmlns="http://www.w3.org/2000/svg" width="21" height="20" viewBox="0 0 21 20" fill="none">
<path d="M18.8332 10.0007H13.8332L12.1665 12.5007H8.83317L7.1665 10.0007H2.1665M18.8332 10.0007V15.0007C18.8332 15.4427 18.6576 15.8666 18.345 16.1792C18.0325 16.4917 17.6085 16.6673 17.1665 16.6673H3.83317C3.39114 16.6673 2.96722 16.4917 2.65466 16.1792C2.3421 15.8666 2.1665 15.4427 2.1665 15.0007V10.0007M18.8332 10.0007L15.9582 4.25898C15.8202 3.98131 15.6075 3.74763 15.344 3.58422C15.0805 3.42081 14.7766 3.33415 14.4665 3.33398H6.53317C6.2231 3.33415 5.91922 3.42081 5.65571 3.58422C5.39219 3.74763 5.17949 3.98131 5.0415 4.25898L2.1665 10.0007" stroke="#1570EF" stroke-width="1.67" stroke-linecap="round" stroke-linejoin="round"/>
</svg>