<svg width="21" height="20" viewBox="0 0 21 20" fill="none" xmlns="http://www.w3.org/2000/svg">
<path d="M8.8335 10.834C9.19138 11.3124 9.64796 11.7083 10.1723 11.9947C10.6966 12.2812 11.2764 12.4516 11.8724 12.4942C12.4683 12.5369 13.0665 12.4509 13.6263 12.2421C14.1861 12.0333 14.6944 11.7065 15.1168 11.284L17.6168 8.78396C18.3758 7.99811 18.7958 6.9456 18.7863 5.85312C18.7768 4.76063 18.3386 3.71558 17.5661 2.94304C16.7935 2.17051 15.7485 1.73231 14.656 1.72281C13.5635 1.71332 12.511 2.1333 11.7252 2.89229L10.2918 4.31729M12.1668 9.16729C11.809 8.68885 11.3524 8.29297 10.828 8.00651C10.3037 7.72004 9.72391 7.54969 9.12796 7.50701C8.532 7.46433 7.93384 7.55032 7.37405 7.75914C6.81425 7.96796 6.3059 8.29473 5.8835 8.71729L3.3835 11.2173C2.62451 12.0031 2.20453 13.0556 2.21402 14.1481C2.22352 15.2406 2.66172 16.2857 3.43426 17.0582C4.20679 17.8307 5.25184 18.2689 6.34433 18.2784C7.43681 18.2879 8.48932 17.8679 9.27517 17.109L10.7002 15.684" stroke="#027A48" stroke-width="1.67" stroke-linecap="round" stroke-linejoin="round"/>
</svg>
