<svg width="21" height="21" viewBox="0 0 21 21" fill="none" xmlns="http://www.w3.org/2000/svg">
<g id="trash-2" clip-path="url(#clip0_610_1331)">
<path id="Icon" d="M3 5.11165H4.66667M4.66667 5.11165H18M4.66667 5.11165V16.7783C4.66667 17.2203 4.84226 17.6443 5.15482 17.9568C5.46738 18.2694 5.89131 18.445 6.33333 18.445H14.6667C15.1087 18.445 15.5326 18.2694 15.8452 17.9568C16.1577 17.6443 16.3333 17.2203 16.3333 16.7783V5.11165H4.66667ZM7.16667 5.11165V3.44499C7.16667 3.00296 7.34226 2.57904 7.65482 2.26648C7.96738 1.95391 8.39131 1.77832 8.83333 1.77832H12.1667C12.6087 1.77832 13.0326 1.95391 13.3452 2.26648C13.6577 2.57904 13.8333 3.00296 13.8333 3.44499V5.11165M8.83333 9.27832V14.2783M12.1667 9.27832V14.2783" stroke="#F04438" stroke-width="1.66667" stroke-linecap="round" stroke-linejoin="round"/>
</g>
<defs>
<clipPath id="clip0_610_1331">
<rect width="20" height="20" fill="white" transform="translate(0.5 0.111328)"/>
</clipPath>
</defs>
</svg>
